<?xml version="1.0" encoding="UTF-8"?>
<svg version="1.1" xmlns="http://www.w3.org/2000/svg" width="371" height="251">
<path d="M0 0 C122.43 0 244.86 0 371 0 C371 82.83 371 165.66 371 251 C248.57 251 126.14 251 0 251 C0 168.17 0 85.34 0 0 Z " fill="#FEFEFE" transform="translate(0,0)"/>
<path d="M0 0 C0.98613281 0.00322266 1.97226563 0.00644531 2.98828125 0.00976562 C4.02082031 0.01814453 5.05335937 0.02652344 6.1171875 0.03515625 C7.67759766 0.04192383 7.67759766 0.04192383 9.26953125 0.04882812 C11.84380712 0.06063673 14.41796896 0.0771055 16.9921875 0.09765625 C16.9921875 0.75765625 16.9921875 1.41765625 16.9921875 2.09765625 C17.6109375 2.30390625 18.2296875 2.51015625 18.8671875 2.72265625 C21.9426026 4.71263072 22.19436095 6.5739223 22.9921875 10.09765625 C23.02168988 12.43080306 23.02539884 14.76455928 22.9921875 17.09765625 C23.6135685 17.09489087 24.23494949 17.09212549 24.87516022 17.08927631 C40.01614052 17.02293478 55.15707604 16.97333602 70.29816437 16.94221973 C77.62037893 16.92677098 84.94249628 16.90571976 92.26464844 16.87133789 C98.64891931 16.8413743 105.03311977 16.82206677 111.41745901 16.81539077 C114.79587621 16.81149023 118.174092 16.80236549 121.55244446 16.78046608 C125.3300059 16.75866129 129.10715129 16.7556907 132.88476562 16.75708008 C133.99679352 16.74629425 135.10882141 16.73550842 136.25454712 16.72439575 C144.64662576 16.75775293 151.79800752 17.90347627 157.9921875 24.09765625 C163.01138108 31.12168353 164.57045722 36.47604018 163.9921875 45.09765625 C163.40004032 48.47831576 162.49996481 51.73774773 161.5546875 55.03515625 C161.00313535 57.03328311 160.45381307 59.0320263 159.90625 61.03125 C159.60235352 62.13452637 159.29845703 63.23780273 158.98535156 64.37451172 C157.85439828 68.61419647 156.80566376 72.87013009 155.765625 77.1328125 C155.18084189 79.50270045 154.59474722 81.87226044 154.00827026 84.24172974 C153.62534239 85.80097067 153.24727527 87.36141411 152.8742981 88.92306519 C148.4062872 107.58161257 148.4062872 107.58161257 140.5546875 112.91015625 C140.01972656 113.28785156 139.48476562 113.66554688 138.93359375 114.0546875 C132.9886656 117.24844166 127.51361475 117.38208265 120.93530273 117.35302734 C119.93784027 117.3566478 118.94037781 117.36026825 117.91268921 117.36399841 C115.7536199 117.37087572 113.59453326 117.37340098 111.43545341 117.37205124 C108.01837807 117.37108458 104.60161603 117.38404375 101.18458557 117.40103149 C91.47179559 117.4472708 81.75903889 117.47192243 72.04614258 117.47851562 C66.09984459 117.48352498 60.15387584 117.50774144 54.20768929 117.54384232 C51.94268837 117.55364945 49.67764222 117.55596731 47.41262627 117.55067062 C44.24795067 117.5436148 41.08426019 117.56085101 37.91967773 117.58349609 C36.98395432 117.57532364 36.0482309 117.56715118 35.08415222 117.55873108 C30.89024109 117.61218174 28.57334745 117.74901726 24.91078186 119.94619751 C22.75902991 122.0013064 22.75902991 122.0013064 22.3671875 125.03515625 C23.22386825 129.23289194 24.59677832 130.49572214 27.9921875 133.09765625 C31.19630162 133.81368932 34.32488458 133.74762804 37.59667969 133.69360352 C38.55831024 133.69766205 39.5199408 133.70172058 40.51071167 133.7059021 C42.59558879 133.71141589 44.68052108 133.70542054 46.76534271 133.68924141 C50.07029632 133.66382227 53.37400244 133.66862064 56.67901611 133.68113708 C63.7002101 133.70189333 70.72101892 133.68221203 77.7421875 133.66015625 C85.86652331 133.63902736 93.99045671 133.63455455 102.11478424 133.66065788 C105.36154078 133.6640083 108.60752207 133.64282757 111.85418701 133.62025452 C113.85949876 133.62276744 115.86480955 133.62632912 117.87011719 133.63110352 C118.76497833 133.61821793 119.65983948 133.60533234 120.58181763 133.59205627 C127.72784791 133.64850295 133.82790344 135.39295936 139.33203125 140.09765625 C139.85925781 140.75765625 140.38648438 141.41765625 140.9296875 142.09765625 C141.47496094 142.75765625 142.02023438 143.41765625 142.58203125 144.09765625 C146.79412032 150.07158867 147.65919039 156.58557785 146.59375 163.79296875 C145.04288836 169.75922469 142.55227415 173.96737087 137.9921875 178.09765625 C137.46238281 178.60554687 136.93257812 179.1134375 136.38671875 179.63671875 C130.89991406 183.97286903 124.481365 183.93840529 117.77734375 183.57421875 C109.79878696 182.56969457 105.35563743 178.12891722 100.40234375 172.05859375 C96.27130806 166.31405105 96.53154516 159.92159046 96.9921875 153.09765625 C97.3221875 152.10765625 97.6521875 151.11765625 97.9921875 150.09765625 C86.1121875 150.09765625 74.2321875 150.09765625 61.9921875 150.09765625 C62.6521875 151.08765625 63.3121875 152.07765625 63.9921875 153.09765625 C65.09639313 160.23914201 63.55789734 167.35848222 59.48046875 173.30078125 C55.58111821 178.03257741 51.17232474 182.24082958 44.98046875 183.51000977 C42.84185611 183.70509272 40.76428178 183.75573304 38.6171875 183.72265625 C37.86912842 183.71355225 37.12106934 183.70444824 36.3503418 183.69506836 C29.9167403 183.42708909 25.48963953 181.88778412 20.9921875 177.09765625 C14.37062168 168.92305793 13.3962915 162.4911912 13.9921875 152.09765625 C14.9921875 148.34765625 14.9921875 148.34765625 15.9921875 146.09765625 C15.2703125 145.64390625 14.5484375 145.19015625 13.8046875 144.72265625 C7.68714269 139.01294776 5.6543777 132.82780957 5.3046875 124.53515625 C5.48564319 118.30778468 6.73654361 115.20184543 10.578125 110.44732666 C15.25359822 102.67834821 11.47738484 88.58578969 10.6796875 79.67578125 C10.54461961 78.12030695 10.41010885 76.56478419 10.27612305 75.00921631 C9.92529714 70.94812477 9.56897541 66.88753804 9.21081543 62.8270874 C8.63674682 56.31664939 8.06793989 49.8057681 7.50527954 43.29433441 C7.30887128 41.03637899 7.10810407 38.77884102 6.90698242 36.52130127 C6.33815287 30.0331052 5.8144015 23.61435983 5.9921875 17.09765625 C4.76242188 17.14986328 4.76242188 17.14986328 3.5078125 17.203125 C2.43015625 17.23019531 1.3525 17.25726562 0.2421875 17.28515625 C-1.35882813 17.33736328 -1.35882813 17.33736328 -2.9921875 17.390625 C-6.38111622 17.0613897 -7.68078097 16.55517553 -10.0078125 14.09765625 C-11.06128572 11.1183023 -11.26369385 8.24215377 -11.0078125 5.09765625 C-7.85524956 0.74929358 -5.16900312 -0.02970691 0 0 Z " fill="#BA3ADC" transform="translate(97.0078125,3.90234375)"/>
<path d="M0 0 C15.46382469 -0.07004311 30.92763754 -0.1229651 46.39158344 -0.15543652 C53.57157503 -0.1709135 60.75146811 -0.19201875 67.93139648 -0.22631836 C74.18853593 -0.25619545 80.44560406 -0.27556896 86.70281285 -0.28226548 C90.01680872 -0.28618068 93.33055263 -0.29696488 96.64449501 -0.31719017 C100.34165335 -0.3388635 104.0383844 -0.3419711 107.7355957 -0.34057617 C108.83754776 -0.351362 109.93949982 -0.36214783 111.07484436 -0.3732605 C112.58295685 -0.36707451 112.58295685 -0.36707451 114.12153625 -0.36076355 C114.9963178 -0.36352893 115.87109934 -0.36629431 116.77238941 -0.36914349 C119.50256078 0.08328073 120.39221296 0.7730875 122 3 C122.44251648 7.98393565 121.63764563 12.27108835 120.390625 17.0859375 C120.14040588 18.06853546 120.14040588 18.06853546 119.88513184 19.07098389 C119.34789644 21.17441922 118.79930423 23.2746874 118.25 25.375 C117.50755351 28.25447527 116.76956687 31.13508859 116.03125 34.015625 C115.85100281 34.71515289 115.67075562 35.41468079 115.48504639 36.13540649 C114.50149602 39.9688199 113.56747841 43.80640788 112.71875 47.671875 C112.54827148 48.44740723 112.37779297 49.22293945 112.20214844 50.02197266 C111.78702336 51.9527974 111.38505096 53.88643769 110.984375 55.8203125 C109.86544922 59.43462039 108.29353956 62.00417507 106 65 C103.73329668 66.13335166 102.51611125 66.12343812 100.00106812 66.12025452 C99.16531754 66.12162918 98.32956696 66.12300385 97.4684906 66.12442017 C96.09069176 66.11902725 96.09069176 66.11902725 94.68505859 66.11352539 C93.71916306 66.11367142 92.75326752 66.11381744 91.75810242 66.1139679 C88.55485819 66.11326937 85.35167161 66.10547978 82.1484375 66.09765625 C79.93169181 66.09579186 77.71494571 66.09436805 75.49819946 66.09336853 C69.65546537 66.08954504 63.81275603 66.07971617 57.97003174 66.06866455 C52.01127456 66.05844682 46.0525134 66.05387013 40.09375 66.04882812 C28.39582244 66.03809377 16.69791328 66.02101935 5 66 C4.52309485 61.60173925 4.04847397 57.20323471 3.57421875 52.8046875 C3.44108276 51.57709717 3.30794678 50.34950684 3.17077637 49.0847168 C2.31166967 41.10410233 1.5220214 33.12029649 0.8125 25.125 C0.72923462 24.21419678 0.64596924 23.30339355 0.56018066 22.36499023 C0.12158966 17.1126928 -0.03720801 11.91969554 -0.02075195 6.64794922 C-0.01625786 4.77512772 -0.01625786 4.77512772 -0.01167297 2.86447144 C-0.00782089 1.91919586 -0.00396881 0.97392029 0 0 Z " fill="#F5D3F8" transform="translate(122,38)"/>
<path d="M0 0 C0.79921875 -0.03287109 1.5984375 -0.06574219 2.421875 -0.09960938 C6.61013427 -0.13749659 9.43219005 0.11793196 12.796875 2.74609375 C15.25 5.4375 15.25 5.4375 15.75 8.9375 C15.29597874 12.11564881 14.64422056 14.56192009 13.25 17.4375 C13.724375 17.89125 14.19875 18.345 14.6875 18.8125 C16.80129587 21.0108477 17.21804795 22.19785962 17.625 25.25 C17.12761245 29.47779414 15.45618923 30.76567564 12.25 33.4375 C9.06453711 35.03023144 5.61800652 34.53891833 2.125 34.5 C-0.47375 34.479375 -3.0725 34.45875 -5.75 34.4375 C-5.75 24.5375 -5.75 14.6375 -5.75 4.4375 C-6.41 4.4375 -7.07 4.4375 -7.75 4.4375 C-7.75 5.0975 -7.75 5.7575 -7.75 6.4375 C-9.07 6.4375 -10.39 6.4375 -11.75 6.4375 C-10.36252567 -0.49987164 -6.2342183 0.04438921 0 0 Z " fill="#0F0F0F" transform="translate(177.75,205.5625)"/>
<path d="M0 0 C0 7.26 0 14.52 0 22 C0.99 21.67 1.98 21.34 3 21 C3 22.32 3 23.64 3 25 C0.98177083 24.70703125 -1.03645833 24.4140625 -3.0546875 24.12109375 C-5.08140667 23.8315703 -5.08140667 23.8315703 -7 25 C-11.37936569 25.51571681 -14.85046515 25.83341277 -18.5 23.1875 C-21.836094 18.32236292 -21.7466482 12.68913464 -21 7 C-16.3862042 -1.90049413 -8.84339189 -0.08039447 0 0 Z " fill="#151515" transform="translate(294,215)"/>
<path d="M0 0 C3.09375 0.061875 3.09375 0.061875 6.25 0.125 C6.58 7.055 6.91 13.985 7.25 21.125 C8.57 21.455 9.89 21.785 11.25 22.125 C10.92 23.115 10.59 24.105 10.25 25.125 C4.5 25.25 4.5 25.25 2.25 24.125 C1.59 24.455 0.93 24.785 0.25 25.125 C-2.8314534 25.60326094 -5.67834924 25.6979504 -8.75 25.125 C-11.9216236 22.77784999 -13.50734634 19.85296098 -14.75 16.125 C-15.14308695 11.32933923 -15.23270142 9.05592416 -13 4.75 C-9.03302283 0.12185997 -6.00091838 -0.12001837 0 0 Z " fill="#121212" transform="translate(322.75,214.875)"/>
<path d="M0 0 C3.09375 0.061875 3.09375 0.061875 6.25 0.125 C6.58 7.055 6.91 13.985 7.25 21.125 C8.57 21.455 9.89 21.785 11.25 22.125 C10.92 23.115 10.59 24.105 10.25 25.125 C4.5 25.25 4.5 25.25 2.25 24.125 C1.59 24.455 0.93 24.785 0.25 25.125 C-2.8314534 25.60326094 -5.67834924 25.6979504 -8.75 25.125 C-11.9216236 22.77784999 -13.50734634 19.85296098 -14.75 16.125 C-15.14308695 11.32933923 -15.23270142 9.05592416 -13 4.75 C-9.03302283 0.12185997 -6.00091838 -0.12001837 0 0 Z " fill="#121212" transform="translate(220.75,214.875)"/>
<path d="M0 0 C2.0661688 1.54040263 2.86831846 2.4115852 3.43359375 4.9375 C3.4441765 10.52519064 3.4441765 10.52519064 1.1875 12.9375 C-2.07047805 14.51994648 -4.60785829 15.12118265 -8.1875 15.0625 C-10.0746875 15.0315625 -10.0746875 15.0315625 -12 15 C-11.51294288 17.06402968 -11.51294288 17.06402968 -10 19 C-5.39502873 20.15124282 -1.61180108 20.01234658 3 19 C3.33 19.99 3.66 20.98 4 22 C-0.75326853 24.77367199 -5.64058864 24.9369045 -11 24 C-13.93969534 21.9121118 -15.39601654 19.20796692 -17 16 C-17.50890436 9.89314771 -17.0775461 6.87040228 -13 2 C-9.46014611 -2.06427669 -4.84879075 -1.41088202 0 0 Z " fill="#141414" transform="translate(63,216)"/>
<path d="M0 0 C3.63 0 7.26 0 11 0 C13 2 13 2 13.25 5 C13 8 13 8 11 10 C8.31160615 10.26991906 5.70858064 10.08737357 3 10 C3 11.32 3 12.64 3 14 C4.5778125 13.87625 4.5778125 13.87625 6.1875 13.75 C10.58864097 14.03859941 12.08772497 14.73472194 15 18 C15.5 20.5625 15.5 20.5625 15 23 C13.12139167 25.5048111 12.03898126 25.98700625 9 27 C6.03 27 3.06 27 0 27 C0 18.09 0 9.18 0 0 Z " fill="#F2F2F2" transform="translate(176,210)"/>
<path d="M0 0 C1.32 0 2.64 0 4 0 C4.33 4.29 4.66 8.58 5 13 C5.66 12.34 6.32 11.68 7 11 C9.0234375 10.6640625 9.0234375 10.6640625 11.375 10.625 C12.53128906 10.58246094 12.53128906 10.58246094 13.7109375 10.5390625 C17.05923202 11.21329246 18.08203145 12.16210084 20 15 C20.47975499 18.10001307 20.37704178 21.12281767 20.25 24.25 C20.23195312 25.09046875 20.21390625 25.9309375 20.1953125 26.796875 C20.14830798 28.86507395 20.07656724 30.93268441 20 33 C21.485 32.505 21.485 32.505 23 32 C23.66 32.33 24.32 32.66 25 33 C24.67 33.99 24.34 34.98 24 36 C21.125 36.125 21.125 36.125 18 36 C15.64641749 33.64641749 15.72128096 33.07031606 15.5859375 29.8671875 C15.54726562 29.06152344 15.50859375 28.25585938 15.46875 27.42578125 C15.4378125 26.58402344 15.406875 25.74226563 15.375 24.875 C15.33632812 24.02550781 15.29765625 23.17601562 15.2578125 22.30078125 C15.16343506 20.20088316 15.08062414 18.10047109 15 16 C11.84997832 15.21249458 9.75929753 14.7184484 6.671875 15.86328125 C3.98605626 19.29585801 4.32216845 22.94596318 4.25 27.1875 C4.22035156 28.03248047 4.19070312 28.87746094 4.16015625 29.74804688 C4.0895301 31.83151822 4.04249205 33.91576506 4 36 C2.68 36 1.36 36 0 36 C0 24.12 0 12.24 0 0 Z " fill="#0F0F0F" transform="translate(111,204)"/>
<path d="M0 0 C5.94 0 11.88 0 18 0 C17.14936332 3.40254672 16.62526036 4.86359336 14.75 7.6015625 C14.3065625 8.25640625 13.863125 8.91125 13.40625 9.5859375 C12.9421875 10.25882813 12.478125 10.93171875 12 11.625 C11.08244426 12.97074841 10.16573766 14.31707629 9.25 15.6640625 C8.84265625 16.25654785 8.4353125 16.8490332 8.015625 17.45947266 C6.93240345 19.03608042 6.93240345 19.03608042 6 21 C10.29 21 14.58 21 19 21 C19.33 21.99 19.66 22.98 20 24 C16.33002427 26.34878447 13.28403947 26.29044335 9 26 C6.60221941 25.45886664 4.34161371 24.76460856 2 24 C2 24.66 2 25.32 2 26 C0.68 25.67 -0.64 25.34 -2 25 C-0.58640226 20.95696398 1.36405612 17.91208947 3.9375 14.5 C6.49960478 11.09024561 8.86511274 7.69422497 11 4 C7.37 4 3.74 4 0 4 C0 2.68 0 1.36 0 0 Z " fill="#181818" transform="translate(243,215)"/>
<path d="M0 0 C2.875 1.5 2.875 1.5 5 4 C5.66438067 8.65066471 5.58851572 10.82296856 3.5 15 C0.47078078 17.42337538 -1.28777833 17.74638885 -5.09375 17.4765625 C-7 17 -7 17 -9.5 15 C-11.58851572 10.82296856 -11.66438067 8.65066471 -11 4 C-7.72794548 0.1505241 -4.96702569 -0.82783761 0 0 Z " fill="#FEF6F9" transform="translate(222,154)"/>
<path d="M0 0 C2.4375 1.625 2.4375 1.625 4 4 C4.72125695 8.40768137 4.52001338 10.25937488 1.9375 13.9375 C-1.74062512 16.52001338 -3.59231863 16.72125695 -8 16 C-10.4375 14.5625 -10.4375 14.5625 -12 12 C-12.60873844 8.87016555 -12.65247963 6.125034 -12 3 C-8.42324245 -1.55223688 -5.38017918 -1.56514303 0 0 Z " fill="#FDF7FD" transform="translate(140,155)"/>
<path d="M0 0 C0.90105469 0.02707031 1.80210937 0.05414063 2.73046875 0.08203125 C3.76107422 0.13423828 3.76107422 0.13423828 4.8125 0.1875 C4.92073773 2.43643954 4.99819645 4.68687575 5.0625 6.9375 C5.10890625 8.19046875 5.1553125 9.4434375 5.203125 10.734375 C4.8125 14.1875 4.8125 14.1875 3.0234375 16.64453125 C0.8125 18.1875 0.8125 18.1875 -2.8125 18.125 C-6.1875 17.1875 -6.1875 17.1875 -8.1875 14.1875 C-8.48828125 11.59375 -8.48828125 11.59375 -8.5 8.6875 C-8.51675781 7.7284375 -8.53351563 6.769375 -8.55078125 5.78125 C-8.1875 3.1875 -8.1875 3.1875 -6.9921875 1.35546875 C-4.55363734 -0.22272713 -2.87926819 -0.11217928 0 0 Z " fill="#F2F2F2" transform="translate(285.1875,218.8125)"/>
<path d="M0 0 C1.5631897 0.00785522 1.5631897 0.00785522 3.15795898 0.01586914 C4.28266602 0.0190918 5.40737305 0.02231445 6.56616211 0.02563477 C7.75016602 0.03401367 8.93416992 0.04239258 10.15405273 0.05102539 C11.34192383 0.05553711 12.52979492 0.06004883 13.75366211 0.06469727 C16.69967499 0.07652864 19.64558954 0.09301252 22.59155273 0.11352539 C22.59155273 1.10352539 22.59155273 2.09352539 22.59155273 3.11352539 C18.96155273 3.11352539 15.33155273 3.11352539 11.59155273 3.11352539 C11.59155273 13.01352539 11.59155273 22.91352539 11.59155273 33.11352539 C10.27155273 33.11352539 8.95155273 33.11352539 7.59155273 33.11352539 C7.59155273 23.21352539 7.59155273 13.31352539 7.59155273 3.11352539 C4.95155273 3.11352539 2.31155273 3.11352539 -0.40844727 3.11352539 C-0.40844727 3.77352539 -0.40844727 4.43352539 -0.40844727 5.11352539 C-1.72844727 5.11352539 -3.04844727 5.11352539 -4.40844727 5.11352539 C-3.28878505 0.15502129 -3.28878505 0.15502129 0 0 Z " fill="#0C0C0C" transform="translate(13.408447265625,206.886474609375)"/>
<path d="M0 0 C0.1079859 2.43868168 0.18726589 4.87259133 0.25 7.3125 C0.30027344 8.34793945 0.30027344 8.34793945 0.3515625 9.40429688 C0.4505827 14.52859205 0.4505827 14.52859205 -1.859375 16.9453125 C-4.60666867 18.2989061 -5.98523093 18.67832304 -9 18 C-11.85927003 14.8316197 -12.90594109 12.67016971 -13.5 8.4375 C-12.24440199 -0.1947363 -7.60686927 -0.73142974 0 0 Z " fill="#F7F7F7" transform="translate(325,219)"/>
<path d="M0 0 C0.1079859 2.43868168 0.18726589 4.87259133 0.25 7.3125 C0.30027344 8.34793945 0.30027344 8.34793945 0.3515625 9.40429688 C0.4505827 14.52859205 0.4505827 14.52859205 -1.859375 16.9453125 C-4.60666867 18.2989061 -5.98523093 18.67832304 -9 18 C-11.85927003 14.8316197 -12.90594109 12.67016971 -13.5 8.4375 C-12.24440199 -0.1947363 -7.60686927 -0.73142974 0 0 Z " fill="#F7F7F7" transform="translate(223,219)"/>
<path d="M0 0 C3 1.75 3 1.75 5 4 C5 5.32 5 6.64 5 8 C4.01 8 3.02 8 2 8 C1.34 7.01 0.68 6.02 0 5 C-3.45769191 4.41657647 -3.45769191 4.41657647 -7 5 C-9.11670357 6.46041766 -9.11670357 6.46041766 -10 9 C-10.29885865 12.34721688 -10.21138915 15.10746801 -9.4375 18.375 C-7.97748782 20.32614804 -7.97748782 20.32614804 -4.75 20.875 C-0.93862261 21.00204591 1.50557445 20.44890816 5 19 C5.33 20.32 5.66 21.64 6 23 C1.48741998 25.32907356 -3.02717404 25.88269846 -8 25 C-11.06946373 23.28339762 -13.40415304 21.19169392 -15 18 C-15.55601425 12.93206684 -15.55831633 9.07812809 -13.1875 4.5 C-9.27498617 0.02855562 -5.77047742 -0.920582 0 0 Z " fill="#121212" transform="translate(93,215)"/>
<path d="M0 0 C0.66 0 1.32 0 2 0 C2.66 0.66 3.32 1.32 4 2 C4.66 1.34 5.32 0.68 6 0 C9.625 -0.125 9.625 -0.125 13 0 C13 1.32 13 2.64 13 4 C11.865625 4.309375 10.73125 4.61875 9.5625 4.9375 C6.21224901 5.62924531 6.21224901 5.62924531 5 7 C4.84417697 8.34015221 4.74955858 9.68758903 4.68359375 11.03515625 C4.64169922 11.84404297 4.59980469 12.65292969 4.55664062 13.48632812 C4.51732422 14.33646484 4.47800781 15.18660156 4.4375 16.0625 C4.39431641 16.91650391 4.35113281 17.77050781 4.30664062 18.65039062 C4.20023298 20.76672037 4.09958269 22.88333813 4 25 C2.68 25 1.36 25 0 25 C-0.16783262 21.56255588 -0.33406544 18.12503622 -0.5 14.6875 C-0.57154297 13.22280273 -0.57154297 13.22280273 -0.64453125 11.72851562 C-0.68964844 10.79072266 -0.73476563 9.85292969 -0.78125 8.88671875 C-0.82314453 8.02264404 -0.86503906 7.15856934 -0.90820312 6.26831055 C-0.97922401 4.51337696 -1 2.75637008 -1 1 C-0.67 0.67 -0.34 0.34 0 0 Z " fill="#0B0B0B" transform="translate(346,215)"/>
<path d="M0 0 C1.62463842 -0.05395478 3.24978541 -0.09277195 4.875 -0.125 C5.77992188 -0.14820313 6.68484375 -0.17140625 7.6171875 -0.1953125 C10 0 10 0 12 2 C12.25 5 12.25 5 12 8 C10 10 10 10 8.0546875 10.1953125 C6.03645833 10.13020833 4.01822917 10.06510417 2 10 C1.67 11.32 1.34 12.64 1 14 C0.06380187 10.84493858 -0.1057123 8.03413498 -0.0625 4.75 C-0.05347656 3.85796875 -0.04445312 2.9659375 -0.03515625 2.046875 C-0.02355469 1.37140625 -0.01195312 0.6959375 0 0 Z " fill="#FBFBFB" transform="translate(177,210)"/>
<path d="M0 0 C3.5 0.25 3.5 0.25 5.5 2.25 C5.3125 4.25 5.3125 4.25 4.5 6.25 C1.41111478 8.30925681 0.79064073 8.4890374 -2.6875 8.375 C-4.5746875 8.313125 -4.5746875 8.313125 -6.5 8.25 C-5.47492163 0.39106583 -5.47492163 0.39106583 0 0 Z " fill="#F5F5F5" transform="translate(57.5,218.75)"/>
</svg>
